<?xml version="1.0" standalone="no"?><!DOCTYPE svg PUBLIC "-//W3C//DTD SVG 1.1//EN" "http://www.w3.org/Graphics/SVG/1.1/DTD/svg11.dtd"><svg t="1515482273956" class="icon" style="" viewBox="0 0 1024 1024" version="1.1" xmlns="http://www.w3.org/2000/svg" p-id="3632" xmlns:xlink="http://www.w3.org/1999/xlink" width="200" height="200"><defs><style type="text/css"></style></defs><path d="M640 128v537.6l-256 153.6-256-153.6V128h512m0-64H128c-38.4 0-64 25.6-64 64v537.6c0 25.6 12.8 44.8 32 57.6l256 153.6c12.8 6.4 19.2 6.4 32 6.4s25.6 0 32-6.4l256-153.6c19.2-12.8 32-32 32-57.6V128c0-38.4-25.6-64-64-64z" fill="#2782d7" p-id="3633"></path><path d="M627.2 966.4l-32-57.6 256-153.6c6.4-6.4 12.8-19.2 12.8-25.6V128h64v601.6c0 32-19.2 64-44.8 83.2l-256 153.6zM384 691.2c-89.6 0-160-70.4-160-160S294.4 371.2 384 371.2s160 70.4 160 160-70.4 160-160 160z m0-256c-51.2 0-96 44.8-96 96S332.8 627.2 384 627.2s96-44.8 96-96S435.2 435.2 384 435.2z" fill="#2782d7" p-id="3634"></path></svg>